<?xml version="1.0" standalone="no"?>
<!DOCTYPE svg PUBLIC "-//W3C//DTD SVG 20010904//EN"
  "http://www.w3.org/TR/2001/REC-SVG-20010904/DTD/svg10.dtd">
<svg version="1.0" xmlns="http://www.w3.org/2000/svg"
     width="1024.000000pt" height="1024.000000pt" viewBox="0 0 1024.000000 1024.000000"
     preserveAspectRatio="xMidYMid meet">

  <g transform="translate(0.000000,1024.000000) scale(0.100000,-0.100000)"
     fill="#000000" stroke="none">
    <path d="M4770 10229 c-1898 -131 -3566 -1304 -4339 -3052 -409 -924 -531
-1988 -345 -2992 297 -1600 1340 -2965 2809 -3675 1337 -647 2894 -679 4260
-88 1463 633 2552 1921 2935 3468 517 2095 -333 4289 -2125 5485 -762 508
-1603 793 -2523 855 -177 12 -491 11 -672 -1z m-439 -2633 c215 -30 366 -79
432 -141 15 -14 39 -49 53 -77 35 -69 180 -503 188 -564 15 -106 -44 -225
-252 -503 -204 -273 -423 -625 -774 -1242 -212 -371 -313 -558 -424 -781 l-79
-158 23 -16 c13 -9 35 -26 50 -39 l27 -23 -43 -88 c-209 -423 -407 -687 -555
-741 -88 -32 -184 -4 -236 67 -103 143 -48 410 183 878 307 622 847 1431 1590
2382 88 114 102 136 87 142 -92 34 -719 46 -991 20 -273 -27 -616 -81 -875
-138 -467 -103 -970 -279 -970 -339 0 -23 30 -31 245 -65 74 -12 159 -31 189
-43 53 -21 82 -49 68 -63 -16 -16 -115 -23 -342 -23 -276 -1 -462 12 -505 34
-83 43 -89 188 -19 475 69 280 132 418 253 547 141 151 323 243 651 328 304
79 813 155 1241 185 182 12 656 4 785 -14z m4387 -1765 c73 -53 141 -174 142
-249 0 -33 -6 -49 -25 -68 -26 -26 -119 -74 -144 -74 -7 0 -11 -6 -8 -12 131
-295 135 -316 88 -413 -18 -36 -71 -118 -119 -182 -240 -327 -267 -383 -260
-541 4 -103 25 -155 78 -190 31 -21 43 -23 115 -20 157 9 327 107 638 368 l37
31 0 -98 0 -98 -153 -163 c-386 -414 -696 -648 -904 -683 -58 -10 -76 -10
-125 5 -93 27 -129 90 -143 253 -12 139 24 322 114 584 l50 144 -31 -35 c-286
-324 -646 -691 -751 -769 -136 -100 -229 -115 -319 -53 -83 57 -192 222 -264
402 -58 143 -78 246 -72 379 15 344 238 617 841 1034 449 310 825 474 1098
476 69 1 80 -2 117 -28z m-2500 -86 c71 -21 132 -70 162 -130 21 -42 25 -63
24 -135 -5 -350 -384 -699 -1112 -1026 l-187 -84 1 -98 c2 -130 27 -198 99
-269 62 -61 123 -83 224 -83 250 1 480 129 977 543 l34 29 0 -99 0 -98 -97
-110 c-338 -385 -672 -635 -953 -715 -92 -26 -245 -36 -325 -21 -87 16 -197
73 -259 136 -146 145 -219 367 -219 660 0 171 21 272 88 428 174 405 602 819
1038 1004 182 77 382 104 505 68z"/>
    <path d="M8307 5266 c-590 -281 -965 -516 -1117 -700 -117 -142 -161 -289
-129 -437 7 -30 23 -64 39 -83 24 -26 35 -31 73 -30 60 1 177 65 336 184 221
165 441 406 757 830 211 282 237 320 227 320 -5 0 -89 -38 -186 -84z"/>
    <path d="M5820 5397 c-114 -47 -262 -160 -407 -310 -100 -103 -166 -197 -214
-304 -33 -74 -72 -203 -61 -203 4 0 63 27 132 61 235 114 415 255 566 443 191
239 183 395 -16 313z"/>
  </g>
</svg>
